<svg width="18" height="18" viewBox="0 0 18 18" fill="none" xmlns="http://www.w3.org/2000/svg">
<g clip-path="url(#clip0_572_389)">
<path d="M13.8211 3.60921C13.5974 3.73244 13.5676 4.10815 13.7544 4.44822C13.9412 4.78863 14.2748 4.96494 14.4985 4.84176C14.7224 4.7192 14.7525 4.34345 14.5651 4.00275C14.3786 3.66237 14.0453 3.48602 13.8211 3.60921Z" fill="white"/>
<path d="M5.8216 11.5699C5.65637 11.2065 5.55435 10.8037 5.52918 10.311C5.52397 10.2111 5.52211 10.1066 5.52366 9.99884C5.5252 9.89098 5.43886 9.80249 5.33103 9.80067C5.22353 9.79975 5.13472 9.88578 5.13321 9.99389C5.13198 10.1097 5.13349 10.2219 5.13933 10.3312C5.16633 10.8667 5.28002 11.3229 5.46649 11.7318C5.65328 12.1401 5.91101 12.4992 6.22007 12.8479C6.40042 13.0512 6.47906 13.289 6.49165 13.5271C6.50455 13.7701 6.4425 14.0113 6.35127 14.1818C6.30089 14.2767 6.33682 14.3947 6.43209 14.4454C6.52702 14.4961 6.6456 14.4601 6.69598 14.3649C6.82166 14.1286 6.89721 13.8267 6.88153 13.5072C6.86617 13.1963 6.75803 12.8651 6.51228 12.5886C6.21947 12.2587 5.98751 11.9324 5.8216 11.5699Z" fill="white"/>
<path d="M8.79605 12.9229C9.06886 12.9088 9.2836 12.8126 9.42862 12.7201C9.57483 12.6283 9.65348 12.5401 9.66237 12.53C9.73367 12.4489 9.72601 12.3257 9.64458 12.2544C9.56439 12.1838 9.44152 12.1912 9.37054 12.271H9.36991L9.36776 12.2738C9.35546 12.287 9.29281 12.3496 9.19114 12.4083C9.08852 12.4683 8.94933 12.5238 8.7764 12.5328C8.66119 12.5383 8.53066 12.5242 8.3804 12.4728C8.11803 12.3835 7.88885 12.2203 7.69197 12.0203C7.39704 11.7199 7.17894 11.3374 7.03821 11.0308C6.96754 10.8775 6.91625 10.7429 6.88278 10.6483C6.8659 10.601 6.8536 10.5635 6.8459 10.538C6.84189 10.5254 6.83883 10.5159 6.83732 10.5098L6.83514 10.503L6.83454 10.5012C6.80537 10.3977 6.69751 10.3374 6.59365 10.3669C6.48984 10.3955 6.4299 10.5037 6.45879 10.6075V10.6072C6.46189 10.6164 6.58476 11.0526 6.86464 11.5491C7.00505 11.7973 7.18505 12.0609 7.41392 12.2941C7.64156 12.5261 7.91989 12.7282 8.25415 12.8422C8.44952 12.9094 8.63261 12.9309 8.79605 12.9229Z" fill="white"/>
<path d="M8.36779 14.796C8.27624 14.7179 8.19419 14.655 8.1134 14.6083C8.07223 14.5849 8.03166 14.5659 7.98807 14.5511C7.94504 14.537 7.89712 14.5278 7.84491 14.5302C7.80835 14.5321 7.76996 14.5404 7.73399 14.5567C7.6698 14.5843 7.62033 14.6347 7.58964 14.6857C7.54324 14.7638 7.52636 14.843 7.5156 14.9321C7.5058 15.0215 7.50516 15.1222 7.51128 15.2393C7.51652 15.3468 7.60838 15.4295 7.71621 15.4243C7.82371 15.4184 7.90668 15.3272 7.90116 15.2193C7.89716 15.1404 7.89684 15.0734 7.89993 15.0208C7.90176 14.988 7.90514 14.9628 7.90883 14.9413C7.92018 14.9477 7.93312 14.9548 7.94722 14.964C8.02432 15.0138 8.13583 15.1066 8.27069 15.2362C8.40646 15.3655 8.56776 15.5324 8.75486 15.7321C8.82855 15.8101 8.95237 15.8147 9.0307 15.7406C9.10903 15.6669 9.11367 15.5434 9.03959 15.4648C8.76991 15.1769 8.54997 14.9538 8.36779 14.796Z" fill="white"/>
<path d="M10.0771 13.3013C10.0089 13.3898 9.93581 13.4362 9.84946 13.4685C9.76344 13.5001 9.66328 13.513 9.55946 13.5185C9.48697 13.5219 9.41293 13.5219 9.33952 13.5259C9.29435 13.5281 9.24949 13.5317 9.2028 13.54C9.16838 13.5468 9.13182 13.5564 9.09434 13.5726C9.06608 13.5846 9.03686 13.6012 9.00955 13.6239C8.96778 13.6571 8.93185 13.7057 8.91248 13.7588C8.89254 13.8119 8.88699 13.8663 8.88977 13.9179C8.89434 14.0012 8.91895 14.0758 8.95087 14.1462C9.00926 14.2691 9.09434 14.3815 9.19113 14.4909C9.33551 14.6543 9.5063 14.8079 9.65255 14.9308C9.72568 14.9929 9.79174 15.0463 9.84454 15.089C9.87126 15.1102 9.89432 15.1287 9.91215 15.144C9.93029 15.1584 9.94379 15.1701 9.94931 15.175C10.0292 15.2466 10.1524 15.2404 10.2249 15.1606C10.2971 15.0801 10.2906 14.9572 10.2108 14.8847C10.188 14.8645 10.1613 14.8429 10.1251 14.814C10.0633 14.7637 9.97821 14.6955 9.88451 14.6156C9.7441 14.4967 9.58526 14.3517 9.46577 14.2132C9.40649 14.1437 9.35671 14.0768 9.32444 14.0196C9.30201 13.9797 9.28974 13.9462 9.28359 13.9229C9.30292 13.9195 9.32813 13.9173 9.35946 13.9158C9.41845 13.9127 9.49463 13.9124 9.57946 13.9078C9.70015 13.9017 9.84029 13.8876 9.98372 13.835C10.1272 13.7834 10.2731 13.6888 10.3874 13.5379C10.4525 13.4522 10.4363 13.3296 10.3505 13.2648C10.2648 13.1993 10.1422 13.2157 10.0771 13.3013Z" fill="white"/>
<path d="M9.21971 0.679727L9.22006 0.68043L9.21936 0.678711L9.21971 0.679727Z" fill="white"/>
<path d="M15.7307 3.74254C15.578 3.35884 15.3381 3.00739 15.0339 2.73306C14.8816 2.59634 14.7114 2.47835 14.5224 2.39236C14.335 2.30633 14.1255 2.25167 13.904 2.25107H13.8973C13.6632 2.25107 13.4229 2.31586 13.2066 2.4483C12.8908 2.64123 12.5879 2.84584 12.297 3.06026C12.3317 2.98837 12.3735 2.90789 12.4227 2.82004C12.5099 2.66089 12.615 2.47593 12.7059 2.26L12.7084 2.25567L12.7102 2.2511C12.7505 2.154 12.7705 2.05142 12.7711 1.94633C12.7708 1.79488 12.729 1.66094 12.6734 1.54942C12.5772 1.35894 12.4393 1.21396 12.2928 1.08986C12.071 0.904303 11.8086 0.754397 11.5407 0.642248C11.4065 0.58635 11.2701 0.539944 11.134 0.506756L11.13 0.505526L11.1337 0.506158C11.1318 0.505842 11.1303 0.505842 11.1285 0.505244C10.9945 0.472654 10.8588 0.45149 10.7171 0.451174C10.609 0.45149 10.4889 0.464076 10.3632 0.510483C10.3 0.534424 10.2336 0.568244 10.1706 0.616162C10.1067 0.664713 10.0477 0.726448 10.001 0.800487C9.96661 0.855787 9.93957 0.907994 9.91285 0.960869C9.86648 1.05333 9.81821 1.15504 9.76572 1.25643L9.76386 1.26012L9.76541 1.25674C9.69014 1.40422 9.59736 1.55445 9.52392 1.63615C9.40351 1.76887 9.28338 0.791944 9.2201 0.680428C9.15221 0.559385 9.0594 0.458311 8.95284 0.369858C8.77126 0.219916 8.56486 0.138811 8.36299 0.0887482C7.65086 -0.085451 6.61372 -0.0485721 6.16305 0.626358C6.16291 0.626358 6.16291 0.626674 6.16291 0.626674L6.16245 0.627307L6.16273 0.62699C6.0715 0.771061 6.01684 0.918823 5.97996 1.05646C5.94368 1.19378 5.92402 1.32558 5.92374 1.45432C5.92374 1.54464 5.93018 1.62821 5.93478 1.71912C5.94586 1.91698 5.95813 2.11083 5.91727 2.30159C5.70651 2.01928 5.57042 1.68839 5.37534 1.39593C5.32127 1.31359 5.25461 1.25249 5.18796 1.20577C5.09022 1.13851 4.98736 1.09889 4.88751 1.074C4.78739 1.04883 4.68385 1.03804 4.57754 1.03772C4.39381 1.03804 4.19659 1.07154 3.99384 1.14221C3.79109 1.21319 3.58125 1.32221 3.37759 1.47492C3.14257 1.65155 2.96622 1.83436 2.84335 2.03004C2.72076 2.22607 2.65502 2.43771 2.65502 2.64876C2.65534 2.80977 2.69496 2.95841 2.75919 3.08378C3.05991 3.66808 3.40986 4.31446 3.40895 4.99094V4.99368C3.40863 5.19674 3.37024 5.35923 3.29342 5.49107L3.21724 5.62136L3.25261 5.64192C2.77578 6.40995 2.37553 7.40624 2.17029 8.74046C2.12638 9.02308 2.10577 9.31277 2.10577 9.60646C2.10609 10.5475 2.31836 11.5315 2.69471 12.4841C3.26059 13.9117 4.19606 15.2736 5.392 16.2956C5.99079 16.8059 6.65527 17.2314 7.37415 17.53C8.08473 17.8256 8.84874 17.9958 9.6463 18.0003H9.66964C10.1148 18.0003 10.5691 17.9475 11.0281 17.8363L11.033 17.8351C11.033 17.8351 11.0398 17.8332 11.0413 17.8329C11.6222 17.6738 12.1608 17.3395 12.6455 16.8919C13.3721 16.2182 13.9865 15.2818 14.428 14.1992C14.8688 13.1157 15.1346 11.8835 15.1349 10.6141C15.1349 9.29185 14.8396 7.92909 14.142 6.68209C14.1905 6.64152 14.2384 6.60067 14.2879 6.56137C14.6476 6.27323 15.0249 6.01335 15.3622 5.7359C15.548 5.5823 15.6863 5.39091 15.773 5.18539C15.8596 4.97986 15.8946 4.76481 15.8946 4.55591C15.8941 4.27371 15.8315 3.99935 15.7307 3.74254ZM3.56796 2.48264C3.61985 2.39999 3.71818 2.28724 3.8902 2.15854C4.02538 2.05687 4.15686 1.99021 4.27513 1.94901C4.39374 1.90784 4.49907 1.89216 4.57743 1.89248C4.6275 1.89216 4.66529 1.89859 4.68677 1.90478C4.75715 2.01506 4.83485 2.1527 4.91595 2.30138C5.05236 2.54962 5.19583 2.82148 5.35868 3.05161C5.42902 3.15022 5.50303 3.24114 5.59088 3.32256C5.39584 3.52872 5.14609 3.74711 4.86863 3.99995C4.66775 4.18276 4.45302 4.38611 4.23579 4.61652C4.18632 4.26141 4.07695 3.92103 3.95749 3.61935C3.87698 3.41597 3.79099 3.23038 3.71294 3.0719C3.63521 2.91401 3.5655 2.78249 3.51972 2.6934C3.5142 2.68237 3.50956 2.66915 3.50956 2.64577C3.50988 2.61659 3.51663 2.56621 3.56796 2.48264ZM14.9851 4.85337C14.9485 4.93817 14.8975 5.01006 14.818 5.0764C14.4241 5.40233 13.8813 5.75752 13.3636 6.2232C13.1047 6.45635 12.8518 6.71873 12.6282 7.02286C12.4045 7.32668 12.2107 7.67325 12.0724 8.06953C12.0082 8.25354 12.1047 8.45383 12.2884 8.51802C12.4715 8.58253 12.6724 8.48578 12.7369 8.30206C12.8503 7.97795 13.0079 7.69533 13.1953 7.43971C13.2684 7.34018 13.3464 7.24494 13.4278 7.1534C14.0241 8.24394 14.2798 9.43782 14.28 10.6163C14.2813 12.1449 13.8472 13.6435 13.1873 14.8072C12.8577 15.3891 12.4727 15.8871 12.0648 16.264C11.6586 16.6403 11.2319 16.8938 10.8206 17.0068C10.4301 17.1011 10.0461 17.1451 9.66947 17.1451C8.75983 17.1451 7.89007 16.8883 7.08857 16.4434C5.88799 15.7768 4.84779 14.6837 4.11541 13.4444C2.82296 11.2626 2.58091 8.60588 3.83033 6.3448C4.35686 5.39369 5.00539 4.82475 5.57956 4.30557C5.86651 4.04565 6.13595 3.79928 6.35465 3.51205C6.46399 3.36795 6.55986 3.21372 6.63295 3.04356C6.70671 2.87337 6.75709 2.68841 6.77611 2.49027C6.79393 2.31639 6.79945 2.16093 6.79945 2.02329C6.79945 1.45742 6.6603 1.0212 7.34813 0.907221C7.47315 0.886022 7.6111 0.87435 7.74568 0.87435C7.89559 0.874033 8.0412 0.889397 8.15884 0.91826C8.2771 0.946842 8.36439 0.990752 8.40553 1.0264C8.43903 1.05403 8.45742 1.07432 8.46663 1.08662C8.47957 1.10505 8.47584 1.10076 8.47893 1.11028C8.48139 1.11918 8.48449 1.14808 8.48414 1.20457C8.48414 1.22148 8.48414 1.2399 8.48414 1.2611C8.48414 1.32867 8.48938 1.40795 8.50165 1.49887C8.57139 2.01007 8.86632 2.56551 9.45983 2.56308C9.57535 2.56368 9.68592 2.53664 9.78116 2.49424C9.94948 2.41929 10.0745 2.305 10.1784 2.18519C10.3335 2.00455 10.4456 1.80149 10.5372 1.62515C10.5821 1.53697 10.6216 1.45527 10.6539 1.38953C10.6696 1.35757 10.684 1.32931 10.6963 1.30628L10.7178 1.306C10.7934 1.30477 10.9289 1.32903 11.0733 1.37849C11.2914 1.45162 11.535 1.57941 11.7024 1.71089C11.786 1.776 11.8502 1.8421 11.8837 1.8903C11.8996 1.91272 11.9086 1.93023 11.9125 1.94067C11.825 2.14648 11.6996 2.35327 11.5816 2.57876C11.3568 3.00883 11.252 3.47454 11.4735 3.92553C10.8779 4.46226 10.3531 5.04655 9.90983 5.6671C9.06102 6.85664 8.50864 8.17978 8.324 9.54961C8.29851 9.74223 8.43337 9.91949 8.62631 9.94502C8.81861 9.97114 8.99587 9.83628 9.02199 9.64366C9.18941 8.39881 9.69327 7.18226 10.4831 6.07632C11.2723 4.97005 12.3482 3.97499 13.6522 3.17782C13.7392 3.1253 13.816 3.10624 13.9011 3.10561C14.0077 3.10561 14.1324 3.14154 14.2652 3.22142C14.4636 3.3394 14.6676 3.5535 14.8111 3.80178C14.957 4.04938 15.0412 4.32768 15.0397 4.55563C15.0398 4.66876 15.0207 4.76829 14.9851 4.85337Z" fill="white"/>
<path d="M15.0397 2.73749L15.0345 2.73303C15.0345 2.73303 15.0349 2.7337 15.0352 2.7337L15.0397 2.73749Z" fill="white"/>
</g>
<defs>
<clipPath id="clip0_572_389">
<rect width="18" height="18" fill="white"/>
</clipPath>
</defs>
</svg>
