<svg width="24" height="25" viewBox="0 0 24 25" fill="none" xmlns="http://www.w3.org/2000/svg">
<path d="M21.3208 5.76781C20.7808 5.34781 20.0608 5.40781 19.6408 5.94781L10.7608 16.6878L4.16082 11.8878C3.62082 11.5278 2.90082 11.5878 2.48082 12.1278C2.12082 12.6678 2.18082 13.3878 2.72082 13.8078L10.2208 19.2678C10.2287 19.2676 10.2366 19.2691 10.244 19.272C10.2513 19.275 10.258 19.2794 10.2636 19.285C10.2692 19.2906 10.2736 19.2973 10.2766 19.3047C10.2795 19.312 10.281 19.3199 10.2808 19.3278C10.3408 19.3278 10.3408 19.3878 10.4008 19.3878C10.4608 19.3878 10.4608 19.4478 10.5208 19.4478C10.5808 19.4478 10.5808 19.4478 10.6408 19.5078H11.3608C11.4208 19.5078 11.4208 19.5078 11.4808 19.4478C11.5408 19.4478 11.5408 19.3878 11.6008 19.3878C11.6608 19.3878 11.6608 19.3278 11.7208 19.3278C11.7808 19.3278 11.7808 19.2678 11.8408 19.2678C11.8487 19.268 11.8566 19.2665 11.864 19.2636C11.8713 19.2606 11.878 19.2562 11.8836 19.2506C11.8892 19.245 11.8936 19.2383 11.8966 19.231C11.8995 19.2236 11.901 19.2157 11.9008 19.2078L11.9608 19.1478L21.5608 7.50781C21.8608 6.96781 21.8008 6.18781 21.3208 5.76781Z" fill="#29C36A"/>
</svg>
