<svg width="25" height="24" viewBox="0 0 25 24" fill="none" xmlns="http://www.w3.org/2000/svg">
<g clip-path="url(#clip0_557_472)">
<path d="M13.1604 23.9657C12.4744 23.9654 11.7895 23.9095 11.1126 23.7985C7.80132 23.2551 4.84113 21.4197 2.88213 18.6954C0.92313 15.9711 0.125511 12.5806 0.664453 9.26868C0.966035 7.38323 1.69287 5.59117 2.78988 4.02833C3.88688 2.46549 5.32527 1.17288 6.99601 0.248482C7.27788 0.0909879 7.59906 0.017765 7.92134 0.0375218C8.24362 0.0572787 8.55345 0.169184 8.81398 0.359929C9.08027 0.542133 9.28787 0.797797 9.41154 1.09582C9.5352 1.39384 9.56958 1.72138 9.51052 2.03859C9.02715 4.60254 9.43009 7.33841 10.7349 9.59784C12.0397 11.8573 14.1111 13.5741 16.5734 14.437C18.4697 15.0951 20.5096 15.2227 22.4731 14.8062C22.7838 14.7452 23.1054 14.7722 23.4015 14.8842C23.6977 14.9962 23.9567 15.1887 24.1493 15.4399C24.3419 15.6912 24.4605 15.9913 24.4917 16.3064C24.5229 16.6215 24.4655 16.939 24.3259 17.2232C23.2516 19.2543 21.645 20.9548 19.678 22.1426C17.7111 23.3304 15.4581 23.9606 13.1604 23.9657ZM7.74827 1.82266C6.41599 2.57809 5.25761 3.60544 4.34842 4.83793C3.43924 6.07042 2.79962 7.48046 2.47114 8.97636C2.14266 10.4723 2.13267 12.0206 2.44183 13.5206C2.75098 15.0206 3.37236 16.4388 4.26557 17.6829C5.34214 19.1878 6.78383 20.3941 8.45503 21.1883C10.1262 21.9825 11.972 22.3385 13.8187 22.2229C15.6654 22.1072 17.4523 21.5237 19.0114 20.5273C20.5705 19.5308 21.8504 18.1541 22.7309 16.5266C20.4904 16.977 18.1705 16.8231 16.0092 16.0808C13.1575 15.0809 10.7573 13.0941 9.2423 10.4793C7.72731 7.86445 7.19739 4.79403 7.74827 1.82266Z" fill="#999A9D"/>
</g>
<defs>
<clipPath id="clip0_557_472">
<rect width="24" height="24" fill="white" transform="translate(0.5)"/>
</clipPath>
</defs>
</svg>
