<svg width="20" height="20" viewBox="0 0 20 20" fill="none" xmlns="http://www.w3.org/2000/svg">
<g clip-path="url(#clip0_572_372)">
<path d="M15.0978 6.11631C14.3424 5.52678 13.5785 5.32335 12.9027 5.32764C12.3858 5.32831 11.9236 5.43335 11.5146 5.52612C11.1052 5.62128 10.7477 5.70116 10.4513 5.69987C10.1554 5.7012 9.79802 5.62128 9.38849 5.52612C8.97943 5.43331 8.51724 5.32831 8.00052 5.32764C7.32463 5.32335 6.56068 5.52647 5.80525 6.11663C5.24431 6.54893 4.83709 7.11569 4.58064 7.76303C4.32318 8.411 4.21021 9.13756 4.2099 9.91901C4.21052 11.1159 4.47412 12.4472 4.93201 13.8608C5.40482 15.3192 5.81002 16.3916 6.10974 17.1714C6.2592 17.5607 6.3822 17.8771 6.4724 18.1271C6.56271 18.3755 6.61888 18.5611 6.63756 18.6645C6.71123 19.0641 6.89584 19.4039 7.1592 19.6397C7.42162 19.8755 7.75799 20.0007 8.09435 20.0001C8.44181 20.0004 8.7876 19.8686 9.06369 19.6258C9.34095 19.3831 9.54658 19.0327 9.64564 18.6086C9.67455 18.4841 9.69291 18.3533 9.71123 18.206C9.74256 17.9498 9.77033 17.6465 9.80998 17.3348C9.86795 16.8688 9.96076 16.3813 10.099 16.0672C10.1658 15.9096 10.2423 15.8023 10.2994 15.7528C10.3597 15.7033 10.3807 15.6953 10.4513 15.6914C10.5069 15.693 10.529 15.7013 10.5663 15.7237C10.6289 15.7601 10.7362 15.8899 10.8237 16.1131C10.9585 16.4437 11.0457 16.9371 11.1015 17.4015C11.1303 17.634 11.1527 17.8605 11.1752 18.064C11.1988 18.269 11.2201 18.4461 11.2576 18.6086C11.3568 19.0326 11.5618 19.3831 11.8392 19.6258C12.1153 19.8692 12.4616 20.0003 12.8089 20C13.1453 20.0006 13.4816 19.8755 13.744 19.6394C14.0076 19.4039 14.1917 19.064 14.2657 18.6644C14.2845 18.561 14.3406 18.3755 14.4308 18.1271C14.7025 17.3734 15.2628 16.0461 15.9712 13.8607C16.4293 12.4475 16.6927 11.1158 16.693 9.91897C16.693 9.13788 16.58 8.41096 16.3226 7.76299C16.0657 7.11569 15.6585 6.54866 15.0978 6.11631ZM15.0234 13.5536C14.5576 14.9899 14.1609 16.0399 13.8633 16.8144C13.7144 17.2021 13.5905 17.5205 13.4936 17.7886C13.3969 18.0581 13.3259 18.2744 13.2866 18.4809C13.245 18.6975 13.162 18.8224 13.0789 18.8973C12.9947 18.9723 12.9048 19.0027 12.8087 19.004C12.7095 19.0033 12.6016 18.9687 12.4961 18.8772C12.3917 18.7851 12.2871 18.6315 12.2274 18.3805C12.2141 18.3244 12.1967 18.2167 12.1807 18.0849C12.1523 17.8524 12.1237 17.5416 12.0815 17.2087C12.0156 16.7067 11.9254 16.1551 11.7193 15.6723C11.6141 15.4312 11.4779 15.2 11.269 15.0111C11.0636 14.8219 10.7656 14.6914 10.4512 14.6954C10.2133 14.694 9.98045 14.7661 9.79533 14.8873C9.46888 15.1033 9.28705 15.4187 9.15494 15.7417C8.96041 16.2305 8.87506 16.7837 8.81299 17.2798C8.78228 17.5271 8.75947 17.759 8.73771 17.9532C8.71638 18.1461 8.69396 18.3059 8.6756 18.3806C8.61615 18.6316 8.51127 18.7848 8.40689 18.8766C8.30092 18.9688 8.19357 19.0034 8.09431 19.0034C7.99791 19.0028 7.90838 18.9717 7.82416 18.8974C7.74111 18.8224 7.65802 18.6976 7.61642 18.4813C7.57713 18.2745 7.50611 18.0582 7.40951 17.7887C7.12017 16.9882 6.57904 15.7104 5.8797 13.5537C5.44322 12.2092 5.20564 10.968 5.20642 9.91913C5.20595 9.23381 5.30666 8.63241 5.5065 8.13135C5.70713 7.62971 6.00092 7.22542 6.41439 6.9051C7.01912 6.44272 7.50611 6.32846 8.00052 6.32417C8.37803 6.32381 8.76279 6.4044 9.16619 6.49756C9.56963 6.5887 9.99072 6.6944 10.4513 6.69604C10.912 6.6944 11.3331 6.5887 11.7365 6.49756C12.1403 6.40444 12.525 6.32381 12.9027 6.32417C13.3966 6.32846 13.8834 6.44307 14.4886 6.9051C14.9021 7.22542 15.1959 7.62936 15.3965 8.13135C15.5963 8.63237 15.6967 9.23378 15.6967 9.91913C15.6975 10.9683 15.4598 12.2098 15.0234 13.5536Z" fill="white"/>
<path d="M18.0143 2.3295L16.3114 1.87833C16.2668 1.8684 16.2305 1.83274 16.2209 1.78782L15.7718 0.0850049C15.7598 0.0354736 15.7159 0.00012207 15.6648 0.00012207C15.6136 0.00012207 15.5696 0.0354736 15.5577 0.0850049L15.1089 1.78782C15.0987 1.83274 15.0627 1.8684 15.0181 1.87833L13.3152 2.3295C13.2654 2.33942 13.23 2.38364 13.23 2.43485C13.23 2.48606 13.2654 2.53028 13.3152 2.53985L15.0181 2.99133C15.0627 3.00059 15.0986 3.03692 15.1089 3.08184L15.5577 4.78438C15.5696 4.83422 15.6136 4.86958 15.6648 4.86958C15.7159 4.86958 15.7598 4.83422 15.7718 4.78438L16.2209 3.08184C16.2305 3.03692 16.2668 3.00059 16.3114 2.99133L18.0143 2.53985C18.0641 2.53028 18.0995 2.48602 18.0995 2.43485C18.0995 2.38364 18.0641 2.33942 18.0143 2.3295Z" fill="white"/>
<path d="M10.4969 9.99039L8.94188 9.57824C8.9011 9.56933 8.86805 9.5366 8.8593 9.49566L8.44911 7.94078C8.43821 7.89554 8.39809 7.86316 8.35137 7.86316C8.30461 7.86316 8.2645 7.89554 8.2536 7.94078L7.84375 9.49566C7.83454 9.5366 7.80165 9.56933 7.76086 9.57824L6.20579 9.99039C6.16024 9.99933 6.12805 10.0399 6.12805 10.0865C6.12805 10.1334 6.16024 10.1737 6.20579 10.1826L7.76086 10.5948C7.80165 10.6034 7.83454 10.6364 7.84375 10.6773L8.2536 12.2322C8.2645 12.2778 8.30461 12.3098 8.35137 12.3098C8.39809 12.3098 8.43821 12.2778 8.44911 12.2322L8.8593 10.6773C8.86805 10.6364 8.9011 10.6034 8.94188 10.5948L10.4969 10.1826C10.5425 10.1737 10.5747 10.1334 10.5747 10.0865C10.5747 10.0399 10.5425 9.99933 10.4969 9.99039Z" fill="white"/>
<path d="M4.28639 5.10638L5.60499 4.75696C5.64362 4.74935 5.67085 4.71536 5.67085 4.6754C5.67085 4.6361 5.64358 4.60142 5.60499 4.59384L4.28639 4.24442C4.2519 4.23681 4.22382 4.20907 4.21639 4.17442L3.86862 2.85599C3.8594 2.81767 3.82538 2.79028 3.78573 2.79028C3.74612 2.79028 3.71206 2.81767 3.70284 2.85599L3.35538 4.17442C3.34745 4.20911 3.31956 4.23685 3.28503 4.24442L1.96643 4.59384C1.92776 4.60142 1.90057 4.6361 1.90057 4.6754C1.90057 4.7154 1.9278 4.74938 1.96643 4.75696L3.28503 5.10638C3.31956 5.11364 3.34745 5.14173 3.35538 5.17638L3.70284 6.49481C3.71206 6.53345 3.74612 6.56052 3.78573 6.56052C3.82538 6.56052 3.8594 6.53341 3.86862 6.49481L4.21639 5.17638C4.22382 5.14173 4.2519 5.11364 4.28639 5.10638Z" fill="white"/>
</g>
<defs>
<clipPath id="clip0_572_372">
<rect width="20" height="20" fill="white"/>
</clipPath>
</defs>
</svg>
