<svg width="16" height="17" viewBox="0 0 16 17" fill="none" xmlns="http://www.w3.org/2000/svg">
<path d="M5.9987 11.8316H9.9987M5.9987 9.16496H9.9987M5.9987 6.49829H6.66536M8.66536 2.49829H5.46536C4.71863 2.49829 4.34526 2.49829 4.06004 2.64362C3.80916 2.77144 3.60518 2.97542 3.47736 3.2263C3.33203 3.51152 3.33203 3.88489 3.33203 4.63162V12.365C3.33203 13.1117 3.33203 13.4851 3.47736 13.7703C3.60518 14.0212 3.80916 14.2252 4.06004 14.353C4.34526 14.4983 4.71863 14.4983 5.46536 14.4983H10.532C11.2788 14.4983 11.6522 14.4983 11.9374 14.353C12.1882 14.2252 12.3922 14.0212 12.52 13.7703C12.6654 13.4851 12.6654 13.1117 12.6654 12.365V6.49829M8.66536 2.49829L12.6654 6.49829M8.66536 2.49829V5.43162C8.66536 5.80499 8.66536 5.99168 8.73803 6.13428C8.80196 6.25972 8.9039 6.36171 9.02936 6.42563C9.17196 6.49829 9.35863 6.49829 9.73203 6.49829H12.6654" stroke="#212529" stroke-linecap="round" stroke-linejoin="round"/>
</svg>
