<svg width="16" height="16" viewBox="0 0 16 16" fill="none" xmlns="http://www.w3.org/2000/svg">
<path d="M8.0013 11.3316C8.7377 11.3316 9.33464 11.9286 9.33464 12.665C9.33464 13.4013 8.7377 13.9983 8.0013 13.9983C7.2649 13.9983 6.66797 13.4013 6.66797 12.665C6.66797 11.9286 7.2649 11.3316 8.0013 11.3316Z" fill="#999A9D"/>
<path d="M8.0013 6.66488C8.7377 6.66488 9.33464 7.26181 9.33464 7.99821C9.33464 8.73461 8.7377 9.33154 8.0013 9.33154C7.2649 9.33154 6.66797 8.73461 6.66797 7.99821C6.66797 7.26181 7.2649 6.66488 8.0013 6.66488Z" fill="#999A9D"/>
<path d="M8.0013 1.99837C8.7377 1.99837 9.33464 2.59531 9.33464 3.33171C9.33464 4.06811 8.7377 4.66504 8.0013 4.66504C7.2649 4.66504 6.66797 4.06811 6.66797 3.33171C6.66797 2.59531 7.2649 1.99837 8.0013 1.99837Z" fill="#999A9D"/>
</svg>
