<svg width="16" height="16" viewBox="0 0 16 16" fill="none" xmlns="http://www.w3.org/2000/svg">
<path d="M13.9987 9.33154C13.8219 9.33154 13.6523 9.40178 13.5273 9.5268C13.4023 9.65183 13.332 9.8214 13.332 9.99821V12.6649C13.332 12.8417 13.2618 13.0113 13.1368 13.1363C13.0117 13.2613 12.8422 13.3315 12.6654 13.3315H3.33203C3.15522 13.3315 2.98565 13.2613 2.86063 13.1363C2.7356 13.0113 2.66536 12.8417 2.66536 12.6649V9.99821C2.66536 9.8214 2.59513 9.65183 2.4701 9.5268C2.34508 9.40178 2.17551 9.33154 1.9987 9.33154C1.82189 9.33154 1.65232 9.40178 1.52729 9.5268C1.40227 9.65183 1.33203 9.8214 1.33203 9.99821V12.6649C1.33203 13.1953 1.54274 13.704 1.91782 14.0791C2.29289 14.4542 2.8016 14.6649 3.33203 14.6649H12.6654C13.1958 14.6649 13.7045 14.4542 14.0796 14.0791C14.4546 13.704 14.6654 13.1953 14.6654 12.6649V9.99821C14.6654 9.8214 14.5951 9.65183 14.4701 9.5268C14.3451 9.40178 14.1755 9.33154 13.9987 9.33154ZM7.52536 10.4715C7.58877 10.5322 7.66353 10.5798 7.74536 10.6115C7.82516 10.6468 7.91145 10.665 7.9987 10.665C8.08594 10.665 8.17223 10.6468 8.25203 10.6115C8.33387 10.5798 8.40863 10.5322 8.47203 10.4715L11.1387 7.80488C11.2642 7.67934 11.3348 7.50908 11.3348 7.33154C11.3348 7.15401 11.2642 6.98375 11.1387 6.85821C11.0132 6.73267 10.8429 6.66215 10.6654 6.66215C10.4878 6.66215 10.3176 6.73267 10.192 6.85821L8.66536 8.39154V1.99821C8.66536 1.8214 8.59513 1.65183 8.4701 1.52681C8.34508 1.40178 8.17551 1.33154 7.9987 1.33154C7.82189 1.33154 7.65232 1.40178 7.52729 1.52681C7.40227 1.65183 7.33203 1.8214 7.33203 1.99821V8.39154L5.80536 6.85821C5.74321 6.79605 5.66941 6.74674 5.5882 6.7131C5.50698 6.67946 5.41994 6.66215 5.33203 6.66215C5.24412 6.66215 5.15708 6.67946 5.07586 6.7131C4.99465 6.74674 4.92086 6.79605 4.8587 6.85821C4.79654 6.92037 4.74723 6.99416 4.71359 7.07538C4.67995 7.15659 4.66264 7.24364 4.66264 7.33154C4.66264 7.41945 4.67995 7.50649 4.71359 7.58771C4.74723 7.66892 4.79654 7.74272 4.8587 7.80488L7.52536 10.4715Z" fill="#999A9D"/>
</svg>
