<svg width="48" height="44" viewBox="0 0 48 44" fill="none" xmlns="http://www.w3.org/2000/svg">
<path d="M23.6698 43.2209C22.8802 42.8053 20.2686 40.9981 17.7906 39.1521C14.8826 36.9865 12.7522 35.1553 10.1502 32.5853C8.31782 30.7757 7.12942 29.4805 6.07902 28.1485C5.86702 27.8805 5.66182 27.6225 5.62382 27.5785C5.56382 27.5065 5.58382 27.4825 5.82382 27.3465C6.39502 27.0225 6.50622 26.7649 7.72182 22.9273C8.81062 19.4901 8.70662 19.7917 8.75382 19.9369C8.79382 20.0049 8.98182 20.9417 9.21462 22.0201C9.88302 25.1385 9.96622 25.4221 10.3146 25.7717C10.5546 26.0117 10.9342 26.1861 11.341 26.2401C11.645 26.2801 12.1694 26.1321 12.4582 25.9201C12.7782 25.6881 13.2294 24.9937 14.6014 22.6189C14.8934 22.1137 15.1462 21.7001 15.163 21.7001C15.163 21.7001 15.435 22.1577 15.7294 22.7169C16.8394 24.8229 18.0778 27.1301 18.2978 27.5029C18.6698 28.1353 19.1178 28.3933 19.825 28.3861C20.3666 28.3821 20.8158 28.1621 21.1038 27.7649C21.2878 27.5089 21.675 26.3053 22.7166 22.7293C23.7054 19.3349 24.055 18.2077 24.0958 18.2809C24.1438 18.3689 24.6062 20.5625 25.3882 24.4205C26.1054 27.9597 26.6402 30.5237 26.8182 31.2757C26.9262 31.7353 26.9702 31.8421 27.1502 32.0601C27.2822 32.2241 27.4582 32.3641 27.6438 32.4601C27.9078 32.5961 27.9718 32.6081 28.4254 32.6081C28.853 32.6077 28.955 32.6081 29.1918 32.4801C29.6342 32.2721 29.763 32.1001 30.1554 31.1785C30.4274 30.5425 31.3014 28.3625 31.7946 27.0941C31.8386 26.9821 31.9106 27.0941 32.539 28.3441C33.297 29.8381 33.5954 30.3713 33.7618 30.5317C33.8218 30.5877 34.0098 30.7037 34.1802 30.7837C34.765 31.0597 35.5618 30.9517 36.0046 30.5277C36.2246 30.3197 36.845 29.0805 38.3274 25.9001C38.803 24.8801 39.359 23.7117 39.5634 23.3037L39.9354 22.5617L40.0234 22.7337C40.0714 22.8257 40.443 23.7133 40.8494 24.7029C41.731 26.8505 41.8318 27.0581 42.1218 27.3257L42.3458 27.5337L42.2258 27.7017C41.9898 28.0337 40.901 29.3429 40.2626 30.0621C39.4438 30.9857 37.127 33.3049 36.0258 34.3045C33.9582 36.1801 31.8122 37.9485 29.6798 39.5333C27.6854 41.0157 24.4714 43.1801 24.0314 43.3369C23.9834 43.3369 23.8298 43.2969 23.6698 43.2209ZM34.2578 24.3425C33.4802 22.7885 33.0262 21.9505 32.871 21.7837C32.711 21.6077 32.2822 21.3917 31.9466 21.3125C31.5506 21.2205 31.0354 21.3645 30.5718 21.7005C30.3318 21.8765 30.1498 22.2285 29.5542 23.6889C29.1058 24.7877 28.997 25.0141 28.9446 24.9569C28.8966 24.9049 28.8926 24.8729 27.5154 18.0517C26.3862 12.4549 26.0686 10.9513 25.8974 10.3961C25.7774 10.0081 25.5614 9.77454 25.1222 9.55814C24.8822 9.44214 24.7942 9.42214 24.3838 9.42614C23.973 9.42734 23.8838 9.42614 23.6294 9.56614C23.0782 9.83414 23.0342 9.90614 22.609 11.2617C22.1146 12.8365 21.9926 13.2461 20.6638 17.7809C20.0438 19.8973 19.4894 21.7805 19.4318 21.9657L19.3278 22.3017L19.2158 22.1377C19.0758 21.9257 18.8878 21.5805 17.9002 19.7177C16.717 17.4833 16.4458 17.0729 15.9894 16.8241C15.7574 16.6961 15.6894 16.6841 15.2654 16.6841C14.717 16.6861 14.5382 16.7481 14.2082 17.0521C13.9122 17.3241 13.6666 17.6737 13.1066 18.6129C12.521 19.5945 12.2742 19.9561 12.225 19.9045C12.185 19.8645 11.949 18.7489 11.6638 17.3877C11.0778 14.6097 10.6938 12.8721 10.583 12.4981C10.491 12.1901 10.203 11.9193 9.72942 11.6889C9.46142 11.5609 9.34942 11.5329 9.06422 11.5329C8.76822 11.5313 8.66822 11.5729 8.35342 11.7089C7.73462 12.0089 7.74262 11.9929 7.18422 13.6773C6.25582 16.4757 4.53062 21.8449 3.98342 23.6389C3.86742 24.0149 3.76742 24.3337 3.76342 24.3437C3.76342 24.3437 3.69142 24.3837 3.61542 24.3837C3.35942 24.3837 3.05862 23.9297 2.25302 22.3369C1.09582 20.0493 0.306218 17.6809 0.0638176 15.7685C-0.0201824 15.1097 -0.0201825 12.5441 0.0630175 11.8957C0.343017 9.71854 1.38542 7.32974 2.85462 5.49894C5.04102 2.77454 8.43022 0.983337 11.9502 0.692136C13.3266 0.576136 15.411 0.816136 16.8702 1.25454C18.2762 1.67694 19.9054 2.56374 21.2466 3.63734C21.9402 4.19254 22.8534 5.11734 23.3258 5.74414C23.7426 6.29734 23.9402 6.52814 23.9966 6.52814C23.9966 6.52814 24.1606 6.35614 24.3166 6.14814C26.309 3.49774 28.7806 1.83374 31.9074 1.03814C33.0074 0.758136 33.379 0.722136 35.0202 0.722136C36.6006 0.722536 36.8206 0.762136 37.947 1.01814C41.8346 1.96414 44.9298 4.43374 46.6658 7.97494C47.1122 8.88574 47.3986 9.66454 47.6218 10.5733C48.4602 13.9865 47.8978 17.8157 45.9762 21.8093C45.5842 22.6201 44.9866 23.7081 44.635 24.2453L44.411 24.5853L44.319 24.3693C44.267 24.2493 43.789 23.0945 43.2546 21.8001C42.2478 19.3641 41.6582 17.9905 41.395 17.4693C41.123 16.9285 40.6426 16.6973 39.8762 16.7373C39.4014 16.7773 39.1074 16.8733 38.8446 17.1293C38.6086 17.3613 38.1302 18.3489 35.8182 23.3913C35.293 24.5369 34.855 25.4825 34.8454 25.4921C34.8454 25.4921 34.5694 24.9945 34.2554 24.3645L34.2578 24.3425Z" fill="#00A8B5"/>
</svg>
