<svg width="57" height="56" viewBox="0 0 57 56" fill="none" xmlns="http://www.w3.org/2000/svg">
<path d="M42.5006 51.3334H14.5007C13.263 51.3334 12.076 50.8417 11.2008 49.9665C10.3256 49.0914 9.83398 47.9044 9.83398 46.6667V9.33338C9.83398 8.09571 10.3256 6.90872 11.2008 6.03355C12.076 5.15838 13.263 4.66672 14.5007 4.66672H31.0673C31.716 4.64384 32.3623 4.75653 32.965 4.99759C33.5676 5.23866 34.1134 5.60279 34.5673 6.06672L46.0006 18.2001C46.7948 19.0986 47.2126 20.2684 47.1673 21.4667V46.6667C47.1673 47.9044 46.6757 49.0914 45.8005 49.9665C44.9253 50.8417 43.7383 51.3334 42.5006 51.3334Z" stroke="#00A8B5" stroke-width="3" stroke-linecap="round" stroke-linejoin="round"/>
<path d="M28.5 39.6665V25.6665" stroke="#00A8B5" stroke-width="3" stroke-linecap="round" stroke-linejoin="round"/>
<path d="M21.5 32.6665H35.5" stroke="#00A8B5" stroke-width="3" stroke-linecap="round" stroke-linejoin="round"/>
</svg>
