<svg width="16" height="17" viewBox="0 0 16 17" fill="none" xmlns="http://www.w3.org/2000/svg">
<path d="M12.0013 15.1667H4.0013C3.64768 15.1667 3.30854 15.0262 3.05849 14.7762C2.80844 14.5261 2.66797 14.187 2.66797 13.8333V3.16668C2.66797 2.81306 2.80844 2.47392 3.05849 2.22387C3.30854 1.97382 3.64768 1.83335 4.0013 1.83335H8.73464C8.91997 1.82681 9.10463 1.85901 9.27682 1.92788C9.44901 1.99676 9.60494 2.1008 9.73464 2.23335L13.0013 5.70001C13.2282 5.95674 13.3476 6.29096 13.3346 6.63335V13.8333C13.3346 14.187 13.1942 14.5261 12.9441 14.7762C12.6941 15.0262 12.3549 15.1667 12.0013 15.1667Z" stroke="#00A8B5" stroke-width="1.5" stroke-linecap="round" stroke-linejoin="round"/>
<path d="M8 11.8333V7.83325" stroke="#00A8B5" stroke-width="1.5" stroke-linecap="round" stroke-linejoin="round"/>
<path d="M6 9.83325H10" stroke="#00A8B5" stroke-width="1.5" stroke-linecap="round" stroke-linejoin="round"/>
</svg>
