<svg width="25" height="24" viewBox="0 0 25 24" fill="none" xmlns="http://www.w3.org/2000/svg">
<mask id="mask0_557_463" style="mask-type:luminance" maskUnits="userSpaceOnUse" x="0" y="0" width="25" height="24">
<path d="M0.5 0H24.5V24H0.5V0Z" fill="white"/>
</mask>
<g mask="url(#mask0_557_463)">
<path d="M5.50024 12.0001H1.50024M23.5002 12.0001H19.5002M7.55024 7.05011L4.72224 4.22211M20.2782 19.7781L17.4502 16.9501M7.55024 16.9501L4.72224 19.7781M20.2782 4.22211L17.4502 7.05011" stroke="#F7912C" stroke-miterlimit="10" stroke-linecap="round"/>
<path d="M12.5002 16.0001C13.5611 16.0001 14.5785 15.5786 15.3287 14.8285C16.0788 14.0783 16.5002 13.0609 16.5002 12.0001C16.5002 10.9392 16.0788 9.92178 15.3287 9.17163C14.5785 8.42149 13.5611 8.00006 12.5002 8.00006C11.4394 8.00006 10.422 8.42149 9.67182 9.17163C8.92167 9.92178 8.50024 10.9392 8.50024 12.0001C8.50024 13.0609 8.92167 14.0783 9.67182 14.8285C10.422 15.5786 11.4394 16.0001 12.5002 16.0001Z" fill="#F7912C" stroke="#F7912C" stroke-miterlimit="10"/>
<path d="M12.5002 19.0001V23.0001M12.5002 1.00006V5.00006" stroke="#F7912C" stroke-miterlimit="10" stroke-linecap="round"/>
</g>
</svg>
