<svg width="32" height="32" viewBox="0 0 32 32" fill="none" xmlns="http://www.w3.org/2000/svg">
<rect width="32" height="32" rx="16" fill="#00A8B5"/>
<g clip-path="url(#clip0_559_1067)">
<path d="M14.7997 16.1372C17.616 16.137 18.6293 13.3172 18.8945 11.0009C19.2213 8.14755 17.872 6 14.7997 6C11.7279 6 10.3779 8.14739 10.7049 11.0009C10.9704 13.3172 11.9834 16.1374 14.7997 16.1372Z" fill="white"/>
<path d="M20.9577 17.3109C21.0483 17.3109 21.1384 17.3137 21.2278 17.3186C21.0938 17.1274 20.9386 16.9588 20.7571 16.8233C20.216 16.4194 19.5151 16.2869 18.8955 16.0434C18.5939 15.9249 18.3239 15.8073 18.0703 15.6733C17.2147 16.6117 16.0988 17.1025 14.7994 17.1027C13.5004 17.1027 12.3847 16.6118 11.5291 15.6733C11.2755 15.8073 11.0054 15.9249 10.7039 16.0434C10.0843 16.2869 9.38348 16.4194 8.8423 16.8233C7.90642 17.5218 7.66456 19.0932 7.47452 20.1651C7.31769 21.0499 7.21233 21.9529 7.18158 22.8517C7.15776 23.5478 7.50148 23.6455 8.0839 23.8556C8.81315 24.1186 9.56613 24.3139 10.3242 24.4739C11.7881 24.7831 13.2971 25.0206 14.7997 25.0313C15.5277 25.0261 16.2572 24.9673 16.9824 24.8733C16.4454 24.0953 16.1305 23.1529 16.1305 22.1382C16.1305 19.4764 18.296 17.3109 20.9577 17.3109Z" fill="white"/>
<path d="M20.9577 18.2764C18.825 18.2764 17.0959 20.0055 17.0959 22.1382C17.0959 24.2709 18.825 26 20.9577 26C23.0905 26 24.8196 24.2709 24.8196 22.1382C24.8195 20.0054 23.0905 18.2764 20.9577 18.2764ZM22.6473 22.8007H21.6203V23.8277C21.6203 24.1936 21.3237 24.4903 20.9578 24.4903C20.5918 24.4903 20.2952 24.1936 20.2952 23.8277V22.8007H19.2682C18.9023 22.8007 18.6056 22.5041 18.6056 22.1381C18.6056 21.7722 18.9023 21.4755 19.2682 21.4755H20.2952V20.4486C20.2952 20.0826 20.5918 19.786 20.9578 19.786C21.3237 19.786 21.6203 20.0826 21.6203 20.4486V21.4755H22.6473C23.0132 21.4755 23.3099 21.7722 23.3099 22.1381C23.3099 22.5041 23.0133 22.8007 22.6473 22.8007Z" fill="white"/>
</g>
<defs>
<clipPath id="clip0_559_1067">
<rect width="20" height="20" fill="white" transform="translate(6 6)"/>
</clipPath>
</defs>
</svg>
