<svg width="18" height="18" viewBox="0 0 18 18" fill="none" xmlns="http://www.w3.org/2000/svg">
<path d="M7.7915 12.7637L6.60358 18H7.58825C7.89494 18 8.16106 17.7883 8.23006 17.4894L8.59699 15.8994H11.5638C12.915 15.8994 14.0758 14.8442 14.3207 13.389C14.3987 12.925 14.4801 12.4264 14.559 11.921H8.84673C8.33801 11.921 7.90408 12.2675 7.7915 12.7637ZM13.4084 13.2354C13.2388 14.2429 12.463 14.9742 11.5637 14.9742H8.59694C8.46385 14.9742 8.33623 15.0026 8.22053 15.0542L8.69369 12.9684C8.71052 12.8942 8.7706 12.8462 8.84673 12.8462H13.4732C13.4519 12.975 13.4303 13.1048 13.4084 13.2354Z" fill="white"/>
<path d="M16.2093 9.51053L15.021 7.11205C14.8029 3.13046 12.5247 0 8.89943 0C2.84695 0 1.68372 3.23334 1.68372 6.53991C1.68372 8.17297 2.37992 9.68213 3.5071 10.7816L2.00546 17.2888C1.96566 17.4612 2.00668 17.6424 2.11681 17.7809C2.22693 17.9194 2.39424 18 2.57119 18H5.33867L6.58851 12.4907C6.82938 11.429 7.75799 10.6875 8.84671 10.6875H14.7434C14.7435 10.6868 14.7436 10.686 14.7438 10.6853H15.6157C15.8705 10.6853 16.1053 10.5338 16.2287 10.2896C16.3521 10.0453 16.3447 9.74706 16.2093 9.51053ZM14.7438 9.76015C14.7224 9.76015 14.7011 9.76088 14.6801 9.76233H8.84671C7.323 9.76233 6.02339 10.8001 5.68627 12.2861L4.59989 17.0749H3.00428L4.40856 10.9897C4.48118 10.6748 4.38437 10.3449 4.15308 10.1193C3.15727 9.14805 2.60886 7.87686 2.60886 6.53997C2.60886 4.78592 2.97374 3.50765 3.72428 2.63222C4.17755 2.10349 4.77126 1.70852 5.5393 1.42473C6.43636 1.09324 7.56688 0.925205 8.89949 0.925205C10.3446 0.925205 11.5975 1.52148 12.5226 2.64966C13.4399 3.7682 13.9992 5.37099 14.0973 7.16277C14.1042 7.288 14.1364 7.4105 14.1921 7.52285L15.3006 9.76021H14.7438V9.76015Z" fill="white"/>
<path d="M4.98596 2.30151C4.90225 2.30151 4.8177 2.32659 4.74419 2.37881C4.68227 2.42284 3.22711 3.47952 3.29405 5.43576C3.30185 5.66164 3.48733 5.83943 3.71154 5.83943C3.71638 5.83943 3.72123 5.83937 3.72614 5.83921C3.95687 5.83124 4.13749 5.63785 4.12958 5.40712C4.07842 3.91378 5.17806 3.09681 5.22951 3.05952C5.41671 2.9256 5.4604 2.66533 5.32704 2.47751C5.2455 2.36276 5.11676 2.30151 4.98596 2.30151Z" fill="white"/>
<path d="M6.05184 2.56632C6.28269 2.56632 6.46983 2.37918 6.46983 2.14834C6.46983 1.91749 6.28269 1.73035 6.05184 1.73035C5.82099 1.73035 5.63385 1.91749 5.63385 2.14834C5.63385 2.37918 5.82099 2.56632 6.05184 2.56632Z" fill="white"/>
</svg>
