<svg width="16" height="17" viewBox="0 0 16 17" fill="none" xmlns="http://www.w3.org/2000/svg">
<g clip-path="url(#clip0_69_10134)">
<path d="M12.5067 2.4013H10.7887V3.2153H12.5067H12.5114C12.948 3.2153 13.302 3.5693 13.302 4.00597V4.0113V14.8953V14.9C13.302 15.3373 12.9474 15.6913 12.5107 15.6913C12.5094 15.6913 12.5074 15.6913 12.506 15.6913H3.60538C3.60405 15.6913 3.60205 15.6913 3.60071 15.6913C3.16338 15.6913 2.80938 15.3366 2.80938 14.9C2.80938 14.898 2.80938 14.8966 2.80938 14.8946V4.01063C2.80938 4.0093 2.80938 4.0073 2.80938 4.00597C2.80938 3.56863 3.16405 3.21463 3.60071 3.21463H3.60538H5.32338V2.4013H3.60538C2.71805 2.4013 1.99805 3.1213 1.99805 4.00863V14.8926C1.99871 15.78 2.71805 16.4993 3.60538 16.4993H12.506C13.3934 16.4993 14.1134 15.7793 14.1134 14.892V4.00797C14.1134 3.12063 13.3934 2.40063 12.506 2.40063L12.5067 2.4013Z" fill="#00A8B5"/>
<path d="M10.4029 1.98333H9.52359C9.52359 1.164 8.85959 0.5 8.04026 0.5C7.22093 0.5 6.55693 1.164 6.55693 1.98333H5.68359V4.02133H10.3989V1.98333H10.4029ZM8.89759 1.98333H7.18426C7.18426 1.97667 7.18426 1.96933 7.18426 1.962C7.18426 1.48867 7.56826 1.10467 8.04159 1.10467C8.51493 1.10467 8.89893 1.48867 8.89893 1.962V1.98467V1.98333H8.89759Z" fill="#00A8B5"/>
<path d="M5.9646 6.17456H12.2699V6.95456H5.9646V6.17456Z" fill="#00A8B5"/>
<path d="M5.9646 9.43994H12.2699V10.2199H5.9646V9.43994Z" fill="#00A8B5"/>
<path d="M5.9646 12.6667H12.2699V13.4507H5.9646V12.6667Z" fill="#00A8B5"/>
<path d="M3.75195 5.67139H5.53862V7.45805H3.75195V5.67139Z" fill="#00A8B5"/>
<path d="M3.75195 8.93677H5.53862V10.7234H3.75195V8.93677Z" fill="#00A8B5"/>
<path d="M3.75195 12.1646H5.53862V13.9512H3.75195V12.1646Z" fill="#00A8B5"/>
</g>
<defs>
<clipPath id="clip0_69_10134">
<rect width="16" height="16" fill="white" transform="translate(0 0.5)"/>
</clipPath>
</defs>
</svg>
