<svg width="32" height="32" viewBox="0 0 32 32" fill="none" xmlns="http://www.w3.org/2000/svg">
<rect width="32" height="32" rx="16" fill="white"/>
<path d="M21.5291 11.77C21.4591 11.76 21.3891 11.76 21.3191 11.77C19.7691 11.72 18.5391 10.45 18.5391 8.89C18.5391 7.3 19.8291 6 21.4291 6C23.0191 6 24.3191 7.29 24.3191 8.89C24.3091 10.45 23.0791 11.72 21.5291 11.77Z" fill="#00A8B5"/>
<path d="M24.7916 18.7004C23.6716 19.4504 22.1016 19.7304 20.6516 19.5404C21.0316 18.7204 21.2316 17.8104 21.2416 16.8504C21.2416 15.8504 21.0216 14.9004 20.6016 14.0704C22.0816 13.8704 23.6516 14.1504 24.7816 14.9004C26.3616 15.9404 26.3616 17.6504 24.7916 18.7004Z" fill="#00A8B5"/>
<path d="M10.4402 11.77C10.5102 11.76 10.5802 11.76 10.6502 11.77C12.2002 11.72 13.4302 10.45 13.4302 8.89C13.4302 7.29 12.1402 6 10.5402 6C8.95016 6 7.66016 7.29 7.66016 8.89C7.66016 10.45 8.89016 11.72 10.4402 11.77Z" fill="#00A8B5"/>
<path d="M10.5511 16.8506C10.5511 17.8206 10.7611 18.7406 11.1411 19.5706C9.73109 19.7206 8.26109 19.4206 7.18109 18.7106C5.60109 17.6606 5.60109 15.9506 7.18109 14.9006C8.25109 14.1806 9.76109 13.8906 11.1811 14.0506C10.7711 14.8906 10.5511 15.8406 10.5511 16.8506Z" fill="#00A8B5"/>
<path d="M16.1208 19.87C16.0408 19.86 15.9508 19.86 15.8608 19.87C14.0208 19.81 12.5508 18.3 12.5508 16.44C12.5608 14.54 14.0908 13 16.0008 13C17.9008 13 19.4408 14.54 19.4408 16.44C19.4308 18.3 17.9708 19.81 16.1208 19.87Z" fill="#00A8B5"/>
<path d="M12.8708 21.9406C11.3608 22.9506 11.3608 24.6106 12.8708 25.6106C14.5908 26.7606 17.4108 26.7606 19.1308 25.6106C20.6408 24.6006 20.6408 22.9406 19.1308 21.9406C17.4208 20.7906 14.6008 20.7906 12.8708 21.9406Z" fill="#00A8B5"/>
</svg>
