<svg width="32" height="32" viewBox="0 0 32 32" fill="none" xmlns="http://www.w3.org/2000/svg">
<rect width="32" height="32" rx="16" fill="#00A8B5"/>
<g clip-path="url(#clip0_559_431)">
<path d="M16.6039 6.40401C15.9401 6.40401 15.4019 5.86585 15.4019 5.202C15.4019 4.53816 15.9401 4 16.6039 4C17.2678 4 17.8059 4.53816 17.8059 5.202C17.8059 5.86585 17.2678 6.40401 16.6039 6.40401Z" fill="white"/>
<path d="M10.2354 6.40401C9.57159 6.40401 9.03343 5.86585 9.03343 5.202C9.03343 4.53816 9.57159 4 10.2354 4C10.8993 4 11.4374 4.53816 11.4374 5.202C11.4374 5.86585 10.8993 6.40401 10.2354 6.40401Z" fill="white"/>
<path d="M6.65411 6.29528C7.26483 5.23752 8.35858 4.60606 9.58002 4.60606V5.79817C8.78953 5.79817 8.08178 6.20682 7.68647 6.89133C7.29117 7.57596 7.29117 8.39327 7.68635 9.0779L11.5156 15.7103C11.9108 16.3948 12.6187 16.8035 13.4092 16.8036C14.1997 16.8036 14.9075 16.3949 15.3029 15.7103L19.132 9.07778C19.5272 8.39327 19.5272 7.57584 19.132 6.89133C18.7368 6.20682 18.0288 5.79805 17.2384 5.79805V4.60594C18.4598 4.60594 19.5537 5.2374 20.1644 6.29528C20.7751 7.35315 20.7751 8.61607 20.1644 9.67383L16.3352 16.3062C15.8259 17.1883 14.9803 17.7724 14.0052 17.9427V21.1413C14.0052 24.2659 15.8498 26.808 18.1171 26.808C20.3843 26.808 22.2288 24.2659 22.2288 21.1413V17.3328C20.871 17.056 19.846 15.8524 19.846 14.4138C19.846 12.7712 21.1823 11.4348 22.8249 11.4348C24.4675 11.4348 25.8039 12.7712 25.8039 14.4138C25.8039 15.8523 24.7789 17.0558 23.421 17.3328V21.1413C23.421 24.9233 21.0417 28.0001 18.1171 28.0001C15.1926 28.0001 12.8133 24.9233 12.8133 21.1413V17.9427C11.8383 17.7724 10.9925 17.1883 10.4834 16.3062L6.65411 9.67383C6.04327 8.61607 6.04327 7.35304 6.65411 6.29528Z" fill="white"/>
</g>
<defs>
<clipPath id="clip0_559_431">
<rect width="24" height="24" fill="white" transform="matrix(-1 0 0 1 28 4)"/>
</clipPath>
</defs>
</svg>
