<svg width="8" height="12" viewBox="0 0 8 12" fill="none" xmlns="http://www.w3.org/2000/svg">
  <path
    d="M6.86004 7.52663L4.00004 10.3933L1.14004 7.52663C1.01451 7.40109 0.844243 7.33057 0.666709 7.33057C0.489174 7.33057 0.318911 7.40109 0.193376 7.52663C0.0678398 7.65216 -0.00268555 7.82242 -0.00268555 7.99996C-0.00268555 8.17749 0.0678398 8.34776 0.193376 8.47329L3.52671 11.8066C3.58868 11.8691 3.66242 11.9187 3.74366 11.9526C3.8249 11.9864 3.91203 12.0038 4.00004 12.0038C4.08805 12.0038 4.17519 11.9864 4.25643 11.9526C4.33767 11.9187 4.4114 11.8691 4.47338 11.8066L7.80671 8.47329C7.86887 8.41113 7.91817 8.33734 7.95181 8.25613C7.98546 8.17491 8.00277 8.08787 8.00277 7.99996C8.00277 7.91205 7.98546 7.82501 7.95181 7.74379C7.91817 7.66258 7.86887 7.58879 7.80671 7.52663C7.74455 7.46447 7.67076 7.41516 7.58954 7.38152C7.50833 7.34788 7.42128 7.33057 7.33337 7.33057C7.24547 7.33057 7.15842 7.34788 7.07721 7.38152C6.99599 7.41516 6.9222 7.46447 6.86004 7.52663ZM1.14004 4.47329L4.00004 1.60663L6.86004 4.47329C6.92202 4.53578 6.99575 4.58537 7.07699 4.61922C7.15823 4.65307 7.24537 4.67049 7.33337 4.67049C7.42138 4.67049 7.50852 4.65307 7.58976 4.61922C7.671 4.58537 7.74473 4.53578 7.80671 4.47329C7.86919 4.41132 7.91879 4.33758 7.95264 4.25634C7.98648 4.1751 8.00391 4.08797 8.00391 3.99996C8.00391 3.91195 7.98648 3.82481 7.95264 3.74357C7.91879 3.66234 7.86919 3.5886 7.80671 3.52663L4.47338 0.193293C4.4114 0.130807 4.33767 0.0812108 4.25643 0.047365C4.17519 0.0135192 4.08805 -0.00390625 4.00004 -0.00390625C3.91203 -0.00390625 3.8249 0.0135192 3.74366 0.047365C3.66242 0.0812108 3.58868 0.130807 3.52671 0.193293L0.193376 3.52663C0.0678398 3.65216 -0.00268555 3.82242 -0.00268555 3.99996C-0.00268555 4.17749 0.0678398 4.34776 0.193376 4.47329C0.318911 4.59883 0.489174 4.66935 0.666709 4.66935C0.844243 4.66935 1.01451 4.59883 1.14004 4.47329Z"
    fill="#212529"
  />
</svg>
