<svg width="24" height="25" viewBox="0 0 24 25" fill="none" xmlns="http://www.w3.org/2000/svg">
<rect x="0.5" y="1" width="23" height="23" rx="3.5" stroke="#00A8B5"/>
<path d="M13.1207 12.5L17.0407 8.57999C17.1868 8.43095 17.2681 8.23031 17.2671 8.02164C17.266 7.81298 17.1826 7.61316 17.0351 7.46561C16.8875 7.31807 16.6877 7.23471 16.4791 7.23365C16.2704 7.2326 16.0698 7.31393 15.9207 7.45999L12.0007 11.38L8.08072 7.45999C7.93169 7.31393 7.73104 7.2326 7.52237 7.23365C7.31371 7.23471 7.1139 7.31807 6.96635 7.46561C6.8188 7.61316 6.73544 7.81298 6.73439 8.02164C6.73333 8.23031 6.81467 8.43095 6.96072 8.57999L10.8807 12.5L6.96072 16.42C6.81467 16.569 6.73333 16.7697 6.73439 16.9783C6.73544 17.187 6.8188 17.3868 6.96635 17.5344C7.1139 17.6819 7.31371 17.7653 7.52237 17.7663C7.73104 17.7674 7.93169 17.686 8.08072 17.54L12.0007 13.62L15.9207 17.54C16.0698 17.686 16.2704 17.7674 16.4791 17.7663C16.6877 17.7653 16.8875 17.6819 17.0351 17.5344C17.1826 17.3868 17.266 17.187 17.2671 16.9783C17.2681 16.7697 17.1868 16.569 17.0407 16.42L13.1207 12.5Z" fill="#00A8B5"/>
</svg>
