<svg width="24" height="25" viewBox="0 0 24 25" fill="none" xmlns="http://www.w3.org/2000/svg">
<path d="M13.6791 12.5001L19.5591 6.6201C19.7782 6.39655 19.9002 6.09558 19.8986 5.78259C19.897 5.46959 19.772 5.16987 19.5507 4.94854C19.3294 4.72722 19.0296 4.60218 18.7166 4.6006C18.4036 4.59902 18.1027 4.72102 17.8791 4.9401L11.9991 10.8201L6.11912 4.9401C5.89558 4.72102 5.5946 4.59902 5.28161 4.6006C4.96861 4.60218 4.66889 4.72722 4.44757 4.94854C4.22624 5.16987 4.10121 5.46959 4.09962 5.78259C4.09804 6.09558 4.22005 6.39655 4.43912 6.6201L10.3191 12.5001L4.43912 18.3801C4.22005 18.6036 4.09804 18.9046 4.09962 19.2176C4.10121 19.5306 4.22624 19.8303 4.44757 20.0517C4.66889 20.273 4.96861 20.398 5.28161 20.3996C5.5946 20.4012 5.89558 20.2792 6.11912 20.0601L11.9991 14.1801L17.8791 20.0601C18.1027 20.2792 18.4036 20.4012 18.7166 20.3996C19.0296 20.398 19.3294 20.273 19.5507 20.0517C19.772 19.8303 19.897 19.5306 19.8986 19.2176C19.9002 18.9046 19.7782 18.6036 19.5591 18.3801L13.6791 12.5001Z" fill="#FF0000"/>
</svg>
